<mxfile host="app.diagrams.net" agent="Mozilla/5.0 (Windows NT 10.0; Win64; x64) AppleWebKit/537.36 (KHTML, like Gecko) Chrome/131.0.0.0 Safari/537.36" version="26.0.11">
  <diagram name="Page-1" id="OsQP43WlHYR-hVrvrMpz">
    <mxGraphModel dx="2570" dy="1327" grid="1" gridSize="10" guides="0" tooltips="1" connect="0" arrows="0" fold="1" page="1" pageScale="1" pageWidth="1920" pageHeight="1080" math="0" shadow="0">
      <root>
        <mxCell id="0" />
        <mxCell id="1" parent="0" />
        <mxCell id="R1StidT4puEd5YkUCCja-5" value="" style="shape=image;verticalLabelPosition=bottom;labelBackgroundColor=default;verticalAlign=top;aspect=fixed;imageAspect=0;image=data:image/png,iVBORw0KGgoAAAANSUhEUgAAAMAAAADACAYAAABS3GwHAAAAAXNSR0IArs4c6QAADPhJREFUeF7tXQuS1TYQtE9C9iQJJyGcJMtJQk4CnAQ4ibPzVk6M9z1L89FII7WrKKCevt3TGv21LviAwMQIrBPXHVUHAgsEACOYGgEIYGr6UXkIADYwNQIQwNT0o/IQAGxgagQggKnpR+UhANjA1AhAAFPTj8pDALCBqRGAAKamH5WHAGADUyMAAUxNPyoPAcAGpkYAApiaflQ+vAC2bftzWZZ3y7L8tizLH+lvMFsPgR/LstCfr8uyfKN/r+tK/w/5hRXAtm1/vSD+HBL18QpNPPwTUQjhBLBtG7X0f6fWfjxTilsj8ggfo4kglABSd4eMH1+/CJAIPvdbvF9LFkYAqeX/HgXYycv5FMUTRBLAF3R7wsiKBsXvI4gghAAw4A1j+MeCPq/r+qn3kncvAHR9ejehy/J13xWKIACa58fAN6YOuh8QRxAA5vtjGj+VuvtuUAQBYPAbVwBf13V933PxIwhg6xlAlO0agZeBcNc21nXhCNqXGSCWAHoHPLpgRuMDAohukc7lhwAAuDMCfWUHATjzMRrgzvCZZzcaH+gCmZvI2AlCAM78jga4M3zm2Y3GBzyAuYmMnSAE4MzvaIA7w2ee3Wh8wAOYm8jYCUIAzvyOBrgzfObZjcYHPIC5iYydIATgzO9ogDvDZ57daHzAA5ibSHmC6bDPLUKE44NUTgignF+TkCMBnm61+HBxtpmuFun6wqmR+Lg1PCZWWjGR6IAr7jEiIdBlU11dMRKdj7OpQgB1xWtxmq2rC6cggIoGcy/pqIBv22Z5kq2ba0ai8vHIbOEBKgja2PiPJWx+ywIEUMFgrpKMBnhF499haiqCaHzkzBUeIIcQ43enC7yadocgAIZBWASNArjzBV7NrhuJwkep7cEDlCKVCefU+jcfD0AARgZTmkwEwJ1b/x26JreuReCj1LawEMZB6iLstm30NBNNe3p+TS6dggA8KQ6y96RB96fZjBAEAAG8QcBh6vMR6u5TohAABHBPAPRyDb1d5v3RIxS0VcLtgwDcoH7NKALg3DIaQug+EObWtferKjENamCN27a18gAQgJI/CEAJYPJSrQSALpCSPwhACWASgOXOT06JIAAOWnfCQgBKAJMA6AknesrJ9WvRv8YYwJXiMIPgFu+YYSHMwBbhAQxAbDQOaLIhDh7AyGBKk4kCuPNq8I91XZ9KMbQMF4WP0jrDA5QilQmXNsTRYNhjQaxJ6x9lXYZDKQTAQSsvAotD8LkSNWv9IYAcNRV+j+Zyt22rOSNEp8Fo8ct1+8OR1mh85EwSHiCHkOD3iivD7vP+5+pDAAKD0ESJCrixJ2je8u8cRuXjkQ3CA2jUWTYmoDUCzcAYF2NV5AgCqAhuGjTSaTEaHNPfnI9a/U+4GpEDGT8sBMDHTBQjHZv8PQmBPMIjr0B3gdKdoM0GulcVRBdIRL880miAn2ZU/hMBrkeX24gmJjyABr0J447WIEEAExqxpsoQgAY9QdzRABdA0FWU0fiAB+jKvPovDATgzNFogDvDZ57daHzAA5ibyNgJQgDO/I4GuDN85tmNxgc8gLmJjJ0gBODM72iAO8Nnnt1ofMADmJvI2AlCAM78jga4M3zm2Y3GBzyAuYmMnSAE4MzvaIA7w2ee3Wh8wAOYm8jYCUIAzvyOBrgzfObZjcYHPIC5ibxNMB2G2ff+vzschjkeitkPwPx8uWeUToPRR1eg7P92KGk+Cwggj5FpiKiAb9tGZ4GPJ8CkuJAwPvUihqh8PAIfHkBqlnfiJaOn87+aQ/BXJSIx0B86MtnEM0AAhgZTklQEwF/K6HEj3BmujyQGbyFE4KPErvYw8AActE5hHVr8XOluN0d4CgECyFFi/HuPgKdBLV2BWKurw0XxNk7wuEmiRz64YB3DwwMw0WvU3SktZfVboyGAUiqMwvUEeMMHsTloPtccJPfEBwcUzAIp0Ep3/1OXh3u7myJXVdRq1ylCACpe+JFbA+788AUfoMcxaIBMt0mbTpe25sMSIEoLY4ALRAMb/14rcxFAANYSzKTXEvAgff4cI6bdoZZ85Coq+R0e4AFqxvf777nQxbfUKtN+H/qO3RPaNkEfjTOuLs+V8Gw2OwQBSOBXxGkBuPFUJxn9N+4152mt4cNBEAoUb1FNRNCCD23Fr+LDA5zQSYZHrz1qv8/rutJ2BfWXvNHuGTTpqZ9YggA08AviegNu8L6XaZ97h+zgEWiXqfRTD4q9+ZBWtDQePMABKYOuj0k344q81mWEAEqlZRTOE3BuXqcqqrsXpZApN+GpvAAXo3Vdu25kuy4cGYQX4MqW1c34T10i6YY8safy4qO0MdCGgwBeRUbTjt+FYLob/0EEmnMIT5JVYghAaCXSaB6AK1p/cUsqxeMcz7vsHnxYYVOSDjzAqwegaU/uRjc6jfW+BOTaYYSLdqLyQwC12TylXxtwRfdH1IWoAZ9izxK7DrX5qIHPVZrTewBhF6J518eoK/RRsEK9cYwUs0ActO6Erd3iCARAd/U8KatlHl3oBdir1bX5MAcmkyA8wLaxWrQXPLtr/Q+zQjQtyl0pZnWDIABnidYEXNj/bzbtmYNeuI+JVZ+afOTqV+P3qT2AwGC67P4cDUOwl4k1DoAAasjwIs2agKctBdRtKP1EU4eliVuEE0yJQgAWwNdKo7IAuCup3fb/FeMAVp1q8lHLhjAN+gABwQwQy1haECrwaqyZIAjAmdWagNfuLjhDdcsOAuChPvsgmLsFgjVjwqPCJrRgYM8a19RskGwQ4KUCAfD2AEEAzHUTrATzBPkmdM0WB12gG9wYAyhttGp0CIAHb+2BfU0+eDW1CT17F2jEadCqdYIAbIRXnEpNwGvPmBRX0jCg4GwDFsIM8TdPqjMBUP1Ym8fMAckkyMUrXaC7v1CZLS43fQyCs5BeB6gJuGDKkArb7UyQR31q8qE0FVH0qccAaeGIDsNznjpizZqIWBFGEgyA2Zv7IAAhOdJotQEXTIV22Q0Sbu1mi7k2H1I7kcaDB3h90JqzI5Sw7m5PkKD1F9UDApBKTRjPA3BuHqkq3QyGha3/IhmgcrGS5CE0FVG06T2AcBwgaj1FDBVEEkx9Uqrs/n/CinWEFAIoIPAqiEeLI+w+dCEC77J78KE0GVZ0eIAEl+Ao4Q40ayGJxU4msHDaU9z6wwNYsleYlleLo2hJm8wKKYxf5bm8+Cg0D3UweIADhAovQKm4eQKl8Yv6/jtMEIBac7wEPAFXegFVy1qKSusyevJRiokmHDzACT2lF6DU6FG8T5KrxzOTAbRarX2tXtX6YwygkZowrneLk1pYWhzjbI+4VzszIQhXq++VSb2PyZsPodkUR4MHuAOVQTfjmOozPZOa5t2P7wJfkpS2atPbwdyrDh+la7J6DQEUa8smYCvAjUWwg0HbjvetxySK/du9zbvkeayMfk+fvefnEXut+LCxprepwANcIGswHqjFGydd1q0PuYQhgBxCxr+3BFx45bgxAqrk1IPec+4t+VAh8SAyPEAG1cAioPEGrU0Un/YqMTAIoAQlwzA9AB5QBKbdniOdPfBhaF4LPAADTcPpSEau7KDVjJ9KAgGw+dBF6A1ww3UCHTD3Y5tMdV4VrDc+tCDCAwgQTHtxpK+0C3LMRqnS37+XKwSQ5cI2QM+Ap8UquohKu2qsAc1tEx66QBqahHF7FsBepUbdourdHXgAodFaRosggJMQ6MV57qvzpZDR/qJv3Ld9SxMvCReJj5L6YAxQgpIgTBon7N0jTRfpZvS0hcJ6h6mgWpgFkoCmiTNCi5PEQDCQEGi/D31HL7FvkqO/f6bfuzD4M3cj8HGsEzyARp0TxoUAnEkfDXBn+MyzG40PeABzExk7QQjAmd/RAHeGzzy70fiABzA3kbEThACc+R0NcGf4zLMbjQ94AHMTGTtBCMCZ39EAd4bPPLvR+IAHMDeRsROEAJz5HQ1wZ/jMsxuND3gAcxMZO0EIwJnfQa4mcUatm+zMb6WwrlkED/Cl4vZiazyR3q8IVD2fbAF2BAHQ0UPrm9IssEMaeQSaHNrJF+v/EBEEIHnFkYMBwtZDwPW4pqQaEQRAe+ipG6Q5VCLBBnGUCPT+QB5Vr3sBUCHTmVu6ZRlfHAS67/6EEUASwXd4gTDW3/3sz45kCA+QBICuUBj7X7p5RDwHWRgBHLpCFq+35HDB73IEuh/4HqsWSgBJBHSYvKdb2eSmMlZMuoWa3kYzvY26NkThBLAD0ugyqtp8RE0/xID3HrhhBXDwBvRPekuLPAONEzBdWl9GdFfRfoVLl9e3lEIQWgCllUQ4IPAIAQgAtjE1AhDA1PSj8hAAbGBqBCCAqelH5SEA2MDUCEAAU9OPykMAsIGpEYAApqYflYcAYANTIwABTE0/Kg8BwAamRgACmJp+VB4CgA1MjQAEMDX9qDwEABuYGoF/AcHWoyrXmN4RAAAAAElFTkSuQmCC;rotation=315;" vertex="1" parent="1">
          <mxGeometry x="100" y="180" width="160" height="160" as="geometry" />
        </mxCell>
        <mxCell id="R1StidT4puEd5YkUCCja-6" value="" style="shape=image;verticalLabelPosition=bottom;labelBackgroundColor=default;verticalAlign=top;aspect=fixed;imageAspect=0;image=data:image/png,iVBORw0KGgoAAAANSUhEUgAAAMAAAADACAYAAABS3GwHAAAAAXNSR0IArs4c6QAADPhJREFUeF7tXQuS1TYQtE9C9iQJJyGcJMtJQk4CnAQ4ibPzVk6M9z1L89FII7WrKKCevt3TGv21LviAwMQIrBPXHVUHAgsEACOYGgEIYGr6UXkIADYwNQIQwNT0o/IQAGxgagQggKnpR+UhANjA1AhAAFPTj8pDALCBqRGAAKamH5WHAGADUyMAAUxNPyoPAcAGpkYAApiaflQ+vAC2bftzWZZ3y7L8tizLH+lvMFsPgR/LstCfr8uyfKN/r+tK/w/5hRXAtm1/vSD+HBL18QpNPPwTUQjhBLBtG7X0f6fWfjxTilsj8ggfo4kglABSd4eMH1+/CJAIPvdbvF9LFkYAqeX/HgXYycv5FMUTRBLAF3R7wsiKBsXvI4gghAAw4A1j+MeCPq/r+qn3kncvAHR9ejehy/J13xWKIACa58fAN6YOuh8QRxAA5vtjGj+VuvtuUAQBYPAbVwBf13V933PxIwhg6xlAlO0agZeBcNc21nXhCNqXGSCWAHoHPLpgRuMDAohukc7lhwAAuDMCfWUHATjzMRrgzvCZZzcaH+gCmZvI2AlCAM78jga4M3zm2Y3GBzyAuYmMnSAE4MzvaIA7w2ee3Wh8wAOYm8jYCUIAzvyOBrgzfObZjcYHPIC5iYydIATgzO9ogDvDZ57daHzAA5ibSHmC6bDPLUKE44NUTgignF+TkCMBnm61+HBxtpmuFun6wqmR+Lg1PCZWWjGR6IAr7jEiIdBlU11dMRKdj7OpQgB1xWtxmq2rC6cggIoGcy/pqIBv22Z5kq2ba0ai8vHIbOEBKgja2PiPJWx+ywIEUMFgrpKMBnhF499haiqCaHzkzBUeIIcQ43enC7yadocgAIZBWASNArjzBV7NrhuJwkep7cEDlCKVCefU+jcfD0AARgZTmkwEwJ1b/x26JreuReCj1LawEMZB6iLstm30NBNNe3p+TS6dggA8KQ6y96RB96fZjBAEAAG8QcBh6vMR6u5TohAABHBPAPRyDb1d5v3RIxS0VcLtgwDcoH7NKALg3DIaQug+EObWtferKjENamCN27a18gAQgJI/CEAJYPJSrQSALpCSPwhACWASgOXOT06JIAAOWnfCQgBKAJMA6AknesrJ9WvRv8YYwJXiMIPgFu+YYSHMwBbhAQxAbDQOaLIhDh7AyGBKk4kCuPNq8I91XZ9KMbQMF4WP0jrDA5QilQmXNsTRYNhjQaxJ6x9lXYZDKQTAQSsvAotD8LkSNWv9IYAcNRV+j+Zyt22rOSNEp8Fo8ct1+8OR1mh85EwSHiCHkOD3iivD7vP+5+pDAAKD0ESJCrixJ2je8u8cRuXjkQ3CA2jUWTYmoDUCzcAYF2NV5AgCqAhuGjTSaTEaHNPfnI9a/U+4GpEDGT8sBMDHTBQjHZv8PQmBPMIjr0B3gdKdoM0GulcVRBdIRL880miAn2ZU/hMBrkeX24gmJjyABr0J447WIEEAExqxpsoQgAY9QdzRABdA0FWU0fiAB+jKvPovDATgzNFogDvDZ57daHzAA5ibyNgJQgDO/I4GuDN85tmNxgc8gLmJjJ0gBODM72iAO8Nnnt1ofMADmJvI2AlCAM78jga4M3zm2Y3GBzyAuYmMnSAE4MzvaIA7w2ee3Wh8wAOYm8jYCUIAzvyOBrgzfObZjcYHPIC5ibxNMB2G2ff+vzschjkeitkPwPx8uWeUToPRR1eg7P92KGk+Cwggj5FpiKiAb9tGZ4GPJ8CkuJAwPvUihqh8PAIfHkBqlnfiJaOn87+aQ/BXJSIx0B86MtnEM0AAhgZTklQEwF/K6HEj3BmujyQGbyFE4KPErvYw8AActE5hHVr8XOluN0d4CgECyFFi/HuPgKdBLV2BWKurw0XxNk7wuEmiRz64YB3DwwMw0WvU3SktZfVboyGAUiqMwvUEeMMHsTloPtccJPfEBwcUzAIp0Ep3/1OXh3u7myJXVdRq1ylCACpe+JFbA+788AUfoMcxaIBMt0mbTpe25sMSIEoLY4ALRAMb/14rcxFAANYSzKTXEvAgff4cI6bdoZZ85Coq+R0e4AFqxvf777nQxbfUKtN+H/qO3RPaNkEfjTOuLs+V8Gw2OwQBSOBXxGkBuPFUJxn9N+4152mt4cNBEAoUb1FNRNCCD23Fr+LDA5zQSYZHrz1qv8/rutJ2BfWXvNHuGTTpqZ9YggA08AviegNu8L6XaZ97h+zgEWiXqfRTD4q9+ZBWtDQePMABKYOuj0k344q81mWEAEqlZRTOE3BuXqcqqrsXpZApN+GpvAAXo3Vdu25kuy4cGYQX4MqW1c34T10i6YY8safy4qO0MdCGgwBeRUbTjt+FYLob/0EEmnMIT5JVYghAaCXSaB6AK1p/cUsqxeMcz7vsHnxYYVOSDjzAqwegaU/uRjc6jfW+BOTaYYSLdqLyQwC12TylXxtwRfdH1IWoAZ9izxK7DrX5qIHPVZrTewBhF6J518eoK/RRsEK9cYwUs0ActO6Erd3iCARAd/U8KatlHl3oBdir1bX5MAcmkyA8wLaxWrQXPLtr/Q+zQjQtyl0pZnWDIABnidYEXNj/bzbtmYNeuI+JVZ+afOTqV+P3qT2AwGC67P4cDUOwl4k1DoAAasjwIs2agKctBdRtKP1EU4eliVuEE0yJQgAWwNdKo7IAuCup3fb/FeMAVp1q8lHLhjAN+gABwQwQy1haECrwaqyZIAjAmdWagNfuLjhDdcsOAuChPvsgmLsFgjVjwqPCJrRgYM8a19RskGwQ4KUCAfD2AEEAzHUTrATzBPkmdM0WB12gG9wYAyhttGp0CIAHb+2BfU0+eDW1CT17F2jEadCqdYIAbIRXnEpNwGvPmBRX0jCg4GwDFsIM8TdPqjMBUP1Ym8fMAckkyMUrXaC7v1CZLS43fQyCs5BeB6gJuGDKkArb7UyQR31q8qE0FVH0qccAaeGIDsNznjpizZqIWBFGEgyA2Zv7IAAhOdJotQEXTIV22Q0Sbu1mi7k2H1I7kcaDB3h90JqzI5Sw7m5PkKD1F9UDApBKTRjPA3BuHqkq3QyGha3/IhmgcrGS5CE0FVG06T2AcBwgaj1FDBVEEkx9Uqrs/n/CinWEFAIoIPAqiEeLI+w+dCEC77J78KE0GVZ0eIAEl+Ao4Q40ayGJxU4msHDaU9z6wwNYsleYlleLo2hJm8wKKYxf5bm8+Cg0D3UweIADhAovQKm4eQKl8Yv6/jtMEIBac7wEPAFXegFVy1qKSusyevJRiokmHDzACT2lF6DU6FG8T5KrxzOTAbRarX2tXtX6YwygkZowrneLk1pYWhzjbI+4VzszIQhXq++VSb2PyZsPodkUR4MHuAOVQTfjmOozPZOa5t2P7wJfkpS2atPbwdyrDh+la7J6DQEUa8smYCvAjUWwg0HbjvetxySK/du9zbvkeayMfk+fvefnEXut+LCxprepwANcIGswHqjFGydd1q0PuYQhgBxCxr+3BFx45bgxAqrk1IPec+4t+VAh8SAyPEAG1cAioPEGrU0Un/YqMTAIoAQlwzA9AB5QBKbdniOdPfBhaF4LPAADTcPpSEau7KDVjJ9KAgGw+dBF6A1ww3UCHTD3Y5tMdV4VrDc+tCDCAwgQTHtxpK+0C3LMRqnS37+XKwSQ5cI2QM+Ap8UquohKu2qsAc1tEx66QBqahHF7FsBepUbdourdHXgAodFaRosggJMQ6MV57qvzpZDR/qJv3Ld9SxMvCReJj5L6YAxQgpIgTBon7N0jTRfpZvS0hcJ6h6mgWpgFkoCmiTNCi5PEQDCQEGi/D31HL7FvkqO/f6bfuzD4M3cj8HGsEzyARp0TxoUAnEkfDXBn+MyzG40PeABzExk7QQjAmd/RAHeGzzy70fiABzA3kbEThACc+R0NcGf4zLMbjQ94AHMTGTtBCMCZ39EAd4bPPLvR+IAHMDeRsROEAJz5HQ1wZ/jMsxuND3gAcxMZO0EIwJnfQa4mcUatm+zMb6WwrlkED/Cl4vZiazyR3q8IVD2fbAF2BAHQ0UPrm9IssEMaeQSaHNrJF+v/EBEEIHnFkYMBwtZDwPW4pqQaEQRAe+ipG6Q5VCLBBnGUCPT+QB5Vr3sBUCHTmVu6ZRlfHAS67/6EEUASwXd4gTDW3/3sz45kCA+QBICuUBj7X7p5RDwHWRgBHLpCFq+35HDB73IEuh/4HqsWSgBJBHSYvKdb2eSmMlZMuoWa3kYzvY26NkThBLAD0ugyqtp8RE0/xID3HrhhBXDwBvRPekuLPAONEzBdWl9GdFfRfoVLl9e3lEIQWgCllUQ4IPAIAQgAtjE1AhDA1PSj8hAAbGBqBCCAqelH5SEA2MDUCEAAU9OPykMAsIGpEYAApqYflYcAYANTIwABTE0/Kg8BwAamRgACmJp+VB4CgA1MjQAEMDX9qDwEABuYGoF/AcHWoyrXmN4RAAAAAElFTkSuQmCC;" vertex="1" parent="1">
          <mxGeometry x="400" y="60" width="160" height="160" as="geometry" />
        </mxCell>
        <mxCell id="R1StidT4puEd5YkUCCja-7" value="" style="shape=image;verticalLabelPosition=bottom;labelBackgroundColor=default;verticalAlign=top;aspect=fixed;imageAspect=0;image=data:image/png,iVBORw0KGgoAAAANSUhEUgAAAMAAAADACAYAAABS3GwHAAAAAXNSR0IArs4c6QAADPhJREFUeF7tXQuS1TYQtE9C9iQJJyGcJMtJQk4CnAQ4ibPzVk6M9z1L89FII7WrKKCevt3TGv21LviAwMQIrBPXHVUHAgsEACOYGgEIYGr6UXkIADYwNQIQwNT0o/IQAGxgagQggKnpR+UhANjA1AhAAFPTj8pDALCBqRGAAKamH5WHAGADUyMAAUxNPyoPAcAGpkYAApiaflQ+vAC2bftzWZZ3y7L8tizLH+lvMFsPgR/LstCfr8uyfKN/r+tK/w/5hRXAtm1/vSD+HBL18QpNPPwTUQjhBLBtG7X0f6fWfjxTilsj8ggfo4kglABSd4eMH1+/CJAIPvdbvF9LFkYAqeX/HgXYycv5FMUTRBLAF3R7wsiKBsXvI4gghAAw4A1j+MeCPq/r+qn3kncvAHR9ejehy/J13xWKIACa58fAN6YOuh8QRxAA5vtjGj+VuvtuUAQBYPAbVwBf13V933PxIwhg6xlAlO0agZeBcNc21nXhCNqXGSCWAHoHPLpgRuMDAohukc7lhwAAuDMCfWUHATjzMRrgzvCZZzcaH+gCmZvI2AlCAM78jga4M3zm2Y3GBzyAuYmMnSAE4MzvaIA7w2ee3Wh8wAOYm8jYCUIAzvyOBrgzfObZjcYHPIC5iYydIATgzO9ogDvDZ57daHzAA5ibSHmC6bDPLUKE44NUTgignF+TkCMBnm61+HBxtpmuFun6wqmR+Lg1PCZWWjGR6IAr7jEiIdBlU11dMRKdj7OpQgB1xWtxmq2rC6cggIoGcy/pqIBv22Z5kq2ba0ai8vHIbOEBKgja2PiPJWx+ywIEUMFgrpKMBnhF499haiqCaHzkzBUeIIcQ43enC7yadocgAIZBWASNArjzBV7NrhuJwkep7cEDlCKVCefU+jcfD0AARgZTmkwEwJ1b/x26JreuReCj1LawEMZB6iLstm30NBNNe3p+TS6dggA8KQ6y96RB96fZjBAEAAG8QcBh6vMR6u5TohAABHBPAPRyDb1d5v3RIxS0VcLtgwDcoH7NKALg3DIaQug+EObWtferKjENamCN27a18gAQgJI/CEAJYPJSrQSALpCSPwhACWASgOXOT06JIAAOWnfCQgBKAJMA6AknesrJ9WvRv8YYwJXiMIPgFu+YYSHMwBbhAQxAbDQOaLIhDh7AyGBKk4kCuPNq8I91XZ9KMbQMF4WP0jrDA5QilQmXNsTRYNhjQaxJ6x9lXYZDKQTAQSsvAotD8LkSNWv9IYAcNRV+j+Zyt22rOSNEp8Fo8ct1+8OR1mh85EwSHiCHkOD3iivD7vP+5+pDAAKD0ESJCrixJ2je8u8cRuXjkQ3CA2jUWTYmoDUCzcAYF2NV5AgCqAhuGjTSaTEaHNPfnI9a/U+4GpEDGT8sBMDHTBQjHZv8PQmBPMIjr0B3gdKdoM0GulcVRBdIRL880miAn2ZU/hMBrkeX24gmJjyABr0J447WIEEAExqxpsoQgAY9QdzRABdA0FWU0fiAB+jKvPovDATgzNFogDvDZ57daHzAA5ibyNgJQgDO/I4GuDN85tmNxgc8gLmJjJ0gBODM72iAO8Nnnt1ofMADmJvI2AlCAM78jga4M3zm2Y3GBzyAuYmMnSAE4MzvaIA7w2ee3Wh8wAOYm8jYCUIAzvyOBrgzfObZjcYHPIC5ibxNMB2G2ff+vzschjkeitkPwPx8uWeUToPRR1eg7P92KGk+Cwggj5FpiKiAb9tGZ4GPJ8CkuJAwPvUihqh8PAIfHkBqlnfiJaOn87+aQ/BXJSIx0B86MtnEM0AAhgZTklQEwF/K6HEj3BmujyQGbyFE4KPErvYw8AActE5hHVr8XOluN0d4CgECyFFi/HuPgKdBLV2BWKurw0XxNk7wuEmiRz64YB3DwwMw0WvU3SktZfVboyGAUiqMwvUEeMMHsTloPtccJPfEBwcUzAIp0Ep3/1OXh3u7myJXVdRq1ylCACpe+JFbA+788AUfoMcxaIBMt0mbTpe25sMSIEoLY4ALRAMb/14rcxFAANYSzKTXEvAgff4cI6bdoZZ85Coq+R0e4AFqxvf777nQxbfUKtN+H/qO3RPaNkEfjTOuLs+V8Gw2OwQBSOBXxGkBuPFUJxn9N+4152mt4cNBEAoUb1FNRNCCD23Fr+LDA5zQSYZHrz1qv8/rutJ2BfWXvNHuGTTpqZ9YggA08AviegNu8L6XaZ97h+zgEWiXqfRTD4q9+ZBWtDQePMABKYOuj0k344q81mWEAEqlZRTOE3BuXqcqqrsXpZApN+GpvAAXo3Vdu25kuy4cGYQX4MqW1c34T10i6YY8safy4qO0MdCGgwBeRUbTjt+FYLob/0EEmnMIT5JVYghAaCXSaB6AK1p/cUsqxeMcz7vsHnxYYVOSDjzAqwegaU/uRjc6jfW+BOTaYYSLdqLyQwC12TylXxtwRfdH1IWoAZ9izxK7DrX5qIHPVZrTewBhF6J518eoK/RRsEK9cYwUs0ActO6Erd3iCARAd/U8KatlHl3oBdir1bX5MAcmkyA8wLaxWrQXPLtr/Q+zQjQtyl0pZnWDIABnidYEXNj/bzbtmYNeuI+JVZ+afOTqV+P3qT2AwGC67P4cDUOwl4k1DoAAasjwIs2agKctBdRtKP1EU4eliVuEE0yJQgAWwNdKo7IAuCup3fb/FeMAVp1q8lHLhjAN+gABwQwQy1haECrwaqyZIAjAmdWagNfuLjhDdcsOAuChPvsgmLsFgjVjwqPCJrRgYM8a19RskGwQ4KUCAfD2AEEAzHUTrATzBPkmdM0WB12gG9wYAyhttGp0CIAHb+2BfU0+eDW1CT17F2jEadCqdYIAbIRXnEpNwGvPmBRX0jCg4GwDFsIM8TdPqjMBUP1Ym8fMAckkyMUrXaC7v1CZLS43fQyCs5BeB6gJuGDKkArb7UyQR31q8qE0FVH0qccAaeGIDsNznjpizZqIWBFGEgyA2Zv7IAAhOdJotQEXTIV22Q0Sbu1mi7k2H1I7kcaDB3h90JqzI5Sw7m5PkKD1F9UDApBKTRjPA3BuHqkq3QyGha3/IhmgcrGS5CE0FVG06T2AcBwgaj1FDBVEEkx9Uqrs/n/CinWEFAIoIPAqiEeLI+w+dCEC77J78KE0GVZ0eIAEl+Ao4Q40ayGJxU4msHDaU9z6wwNYsleYlleLo2hJm8wKKYxf5bm8+Cg0D3UweIADhAovQKm4eQKl8Yv6/jtMEIBac7wEPAFXegFVy1qKSusyevJRiokmHDzACT2lF6DU6FG8T5KrxzOTAbRarX2tXtX6YwygkZowrneLk1pYWhzjbI+4VzszIQhXq++VSb2PyZsPodkUR4MHuAOVQTfjmOozPZOa5t2P7wJfkpS2atPbwdyrDh+la7J6DQEUa8smYCvAjUWwg0HbjvetxySK/du9zbvkeayMfk+fvefnEXut+LCxprepwANcIGswHqjFGydd1q0PuYQhgBxCxr+3BFx45bgxAqrk1IPec+4t+VAh8SAyPEAG1cAioPEGrU0Un/YqMTAIoAQlwzA9AB5QBKbdniOdPfBhaF4LPAADTcPpSEau7KDVjJ9KAgGw+dBF6A1ww3UCHTD3Y5tMdV4VrDc+tCDCAwgQTHtxpK+0C3LMRqnS37+XKwSQ5cI2QM+Ap8UquohKu2qsAc1tEx66QBqahHF7FsBepUbdourdHXgAodFaRosggJMQ6MV57qvzpZDR/qJv3Ld9SxMvCReJj5L6YAxQgpIgTBon7N0jTRfpZvS0hcJ6h6mgWpgFkoCmiTNCi5PEQDCQEGi/D31HL7FvkqO/f6bfuzD4M3cj8HGsEzyARp0TxoUAnEkfDXBn+MyzG40PeABzExk7QQjAmd/RAHeGzzy70fiABzA3kbEThACc+R0NcGf4zLMbjQ94AHMTGTtBCMCZ39EAd4bPPLvR+IAHMDeRsROEAJz5HQ1wZ/jMsxuND3gAcxMZO0EIwJnfQa4mcUatm+zMb6WwrlkED/Cl4vZiazyR3q8IVD2fbAF2BAHQ0UPrm9IssEMaeQSaHNrJF+v/EBEEIHnFkYMBwtZDwPW4pqQaEQRAe+ipG6Q5VCLBBnGUCPT+QB5Vr3sBUCHTmVu6ZRlfHAS67/6EEUASwXd4gTDW3/3sz45kCA+QBICuUBj7X7p5RDwHWRgBHLpCFq+35HDB73IEuh/4HqsWSgBJBHSYvKdb2eSmMlZMuoWa3kYzvY26NkThBLAD0ugyqtp8RE0/xID3HrhhBXDwBvRPekuLPAONEzBdWl9GdFfRfoVLl9e3lEIQWgCllUQ4IPAIAQgAtjE1AhDA1PSj8hAAbGBqBCCAqelH5SEA2MDUCEAAU9OPykMAsIGpEYAApqYflYcAYANTIwABTE0/Kg8BwAamRgACmJp+VB4CgA1MjQAEMDX9qDwEABuYGoF/AcHWoyrXmN4RAAAAAElFTkSuQmCC;rotation=45;" vertex="1" parent="1">
          <mxGeometry x="700" y="180" width="160" height="160" as="geometry" />
        </mxCell>
        <mxCell id="R1StidT4puEd5YkUCCja-8" value="" style="shape=image;verticalLabelPosition=bottom;labelBackgroundColor=default;verticalAlign=top;aspect=fixed;imageAspect=0;image=data:image/png,iVBORw0KGgoAAAANSUhEUgAAAMAAAADACAYAAABS3GwHAAAAAXNSR0IArs4c6QAADPhJREFUeF7tXQuS1TYQtE9C9iQJJyGcJMtJQk4CnAQ4ibPzVk6M9z1L89FII7WrKKCevt3TGv21LviAwMQIrBPXHVUHAgsEACOYGgEIYGr6UXkIADYwNQIQwNT0o/IQAGxgagQggKnpR+UhANjA1AhAAFPTj8pDALCBqRGAAKamH5WHAGADUyMAAUxNPyoPAcAGpkYAApiaflQ+vAC2bftzWZZ3y7L8tizLH+lvMFsPgR/LstCfr8uyfKN/r+tK/w/5hRXAtm1/vSD+HBL18QpNPPwTUQjhBLBtG7X0f6fWfjxTilsj8ggfo4kglABSd4eMH1+/CJAIPvdbvF9LFkYAqeX/HgXYycv5FMUTRBLAF3R7wsiKBsXvI4gghAAw4A1j+MeCPq/r+qn3kncvAHR9ejehy/J13xWKIACa58fAN6YOuh8QRxAA5vtjGj+VuvtuUAQBYPAbVwBf13V933PxIwhg6xlAlO0agZeBcNc21nXhCNqXGSCWAHoHPLpgRuMDAohukc7lhwAAuDMCfWUHATjzMRrgzvCZZzcaH+gCmZvI2AlCAM78jga4M3zm2Y3GBzyAuYmMnSAE4MzvaIA7w2ee3Wh8wAOYm8jYCUIAzvyOBrgzfObZjcYHPIC5iYydIATgzO9ogDvDZ57daHzAA5ibSHmC6bDPLUKE44NUTgignF+TkCMBnm61+HBxtpmuFun6wqmR+Lg1PCZWWjGR6IAr7jEiIdBlU11dMRKdj7OpQgB1xWtxmq2rC6cggIoGcy/pqIBv22Z5kq2ba0ai8vHIbOEBKgja2PiPJWx+ywIEUMFgrpKMBnhF499haiqCaHzkzBUeIIcQ43enC7yadocgAIZBWASNArjzBV7NrhuJwkep7cEDlCKVCefU+jcfD0AARgZTmkwEwJ1b/x26JreuReCj1LawEMZB6iLstm30NBNNe3p+TS6dggA8KQ6y96RB96fZjBAEAAG8QcBh6vMR6u5TohAABHBPAPRyDb1d5v3RIxS0VcLtgwDcoH7NKALg3DIaQug+EObWtferKjENamCN27a18gAQgJI/CEAJYPJSrQSALpCSPwhACWASgOXOT06JIAAOWnfCQgBKAJMA6AknesrJ9WvRv8YYwJXiMIPgFu+YYSHMwBbhAQxAbDQOaLIhDh7AyGBKk4kCuPNq8I91XZ9KMbQMF4WP0jrDA5QilQmXNsTRYNhjQaxJ6x9lXYZDKQTAQSsvAotD8LkSNWv9IYAcNRV+j+Zyt22rOSNEp8Fo8ct1+8OR1mh85EwSHiCHkOD3iivD7vP+5+pDAAKD0ESJCrixJ2je8u8cRuXjkQ3CA2jUWTYmoDUCzcAYF2NV5AgCqAhuGjTSaTEaHNPfnI9a/U+4GpEDGT8sBMDHTBQjHZv8PQmBPMIjr0B3gdKdoM0GulcVRBdIRL880miAn2ZU/hMBrkeX24gmJjyABr0J447WIEEAExqxpsoQgAY9QdzRABdA0FWU0fiAB+jKvPovDATgzNFogDvDZ57daHzAA5ibyNgJQgDO/I4GuDN85tmNxgc8gLmJjJ0gBODM72iAO8Nnnt1ofMADmJvI2AlCAM78jga4M3zm2Y3GBzyAuYmMnSAE4MzvaIA7w2ee3Wh8wAOYm8jYCUIAzvyOBrgzfObZjcYHPIC5ibxNMB2G2ff+vzschjkeitkPwPx8uWeUToPRR1eg7P92KGk+Cwggj5FpiKiAb9tGZ4GPJ8CkuJAwPvUihqh8PAIfHkBqlnfiJaOn87+aQ/BXJSIx0B86MtnEM0AAhgZTklQEwF/K6HEj3BmujyQGbyFE4KPErvYw8AActE5hHVr8XOluN0d4CgECyFFi/HuPgKdBLV2BWKurw0XxNk7wuEmiRz64YB3DwwMw0WvU3SktZfVboyGAUiqMwvUEeMMHsTloPtccJPfEBwcUzAIp0Ep3/1OXh3u7myJXVdRq1ylCACpe+JFbA+788AUfoMcxaIBMt0mbTpe25sMSIEoLY4ALRAMb/14rcxFAANYSzKTXEvAgff4cI6bdoZZ85Coq+R0e4AFqxvf777nQxbfUKtN+H/qO3RPaNkEfjTOuLs+V8Gw2OwQBSOBXxGkBuPFUJxn9N+4152mt4cNBEAoUb1FNRNCCD23Fr+LDA5zQSYZHrz1qv8/rutJ2BfWXvNHuGTTpqZ9YggA08AviegNu8L6XaZ97h+zgEWiXqfRTD4q9+ZBWtDQePMABKYOuj0k344q81mWEAEqlZRTOE3BuXqcqqrsXpZApN+GpvAAXo3Vdu25kuy4cGYQX4MqW1c34T10i6YY8safy4qO0MdCGgwBeRUbTjt+FYLob/0EEmnMIT5JVYghAaCXSaB6AK1p/cUsqxeMcz7vsHnxYYVOSDjzAqwegaU/uRjc6jfW+BOTaYYSLdqLyQwC12TylXxtwRfdH1IWoAZ9izxK7DrX5qIHPVZrTewBhF6J518eoK/RRsEK9cYwUs0ActO6Erd3iCARAd/U8KatlHl3oBdir1bX5MAcmkyA8wLaxWrQXPLtr/Q+zQjQtyl0pZnWDIABnidYEXNj/bzbtmYNeuI+JVZ+afOTqV+P3qT2AwGC67P4cDUOwl4k1DoAAasjwIs2agKctBdRtKP1EU4eliVuEE0yJQgAWwNdKo7IAuCup3fb/FeMAVp1q8lHLhjAN+gABwQwQy1haECrwaqyZIAjAmdWagNfuLjhDdcsOAuChPvsgmLsFgjVjwqPCJrRgYM8a19RskGwQ4KUCAfD2AEEAzHUTrATzBPkmdM0WB12gG9wYAyhttGp0CIAHb+2BfU0+eDW1CT17F2jEadCqdYIAbIRXnEpNwGvPmBRX0jCg4GwDFsIM8TdPqjMBUP1Ym8fMAckkyMUrXaC7v1CZLS43fQyCs5BeB6gJuGDKkArb7UyQR31q8qE0FVH0qccAaeGIDsNznjpizZqIWBFGEgyA2Zv7IAAhOdJotQEXTIV22Q0Sbu1mi7k2H1I7kcaDB3h90JqzI5Sw7m5PkKD1F9UDApBKTRjPA3BuHqkq3QyGha3/IhmgcrGS5CE0FVG06T2AcBwgaj1FDBVEEkx9Uqrs/n/CinWEFAIoIPAqiEeLI+w+dCEC77J78KE0GVZ0eIAEl+Ao4Q40ayGJxU4msHDaU9z6wwNYsleYlleLo2hJm8wKKYxf5bm8+Cg0D3UweIADhAovQKm4eQKl8Yv6/jtMEIBac7wEPAFXegFVy1qKSusyevJRiokmHDzACT2lF6DU6FG8T5KrxzOTAbRarX2tXtX6YwygkZowrneLk1pYWhzjbI+4VzszIQhXq++VSb2PyZsPodkUR4MHuAOVQTfjmOozPZOa5t2P7wJfkpS2atPbwdyrDh+la7J6DQEUa8smYCvAjUWwg0HbjvetxySK/du9zbvkeayMfk+fvefnEXut+LCxprepwANcIGswHqjFGydd1q0PuYQhgBxCxr+3BFx45bgxAqrk1IPec+4t+VAh8SAyPEAG1cAioPEGrU0Un/YqMTAIoAQlwzA9AB5QBKbdniOdPfBhaF4LPAADTcPpSEau7KDVjJ9KAgGw+dBF6A1ww3UCHTD3Y5tMdV4VrDc+tCDCAwgQTHtxpK+0C3LMRqnS37+XKwSQ5cI2QM+Ap8UquohKu2qsAc1tEx66QBqahHF7FsBepUbdourdHXgAodFaRosggJMQ6MV57qvzpZDR/qJv3Ld9SxMvCReJj5L6YAxQgpIgTBon7N0jTRfpZvS0hcJ6h6mgWpgFkoCmiTNCi5PEQDCQEGi/D31HL7FvkqO/f6bfuzD4M3cj8HGsEzyARp0TxoUAnEkfDXBn+MyzG40PeABzExk7QQjAmd/RAHeGzzy70fiABzA3kbEThACc+R0NcGf4zLMbjQ94AHMTGTtBCMCZ39EAd4bPPLvR+IAHMDeRsROEAJz5HQ1wZ/jMsxuND3gAcxMZO0EIwJnfQa4mcUatm+zMb6WwrlkED/Cl4vZiazyR3q8IVD2fbAF2BAHQ0UPrm9IssEMaeQSaHNrJF+v/EBEEIHnFkYMBwtZDwPW4pqQaEQRAe+ipG6Q5VCLBBnGUCPT+QB5Vr3sBUCHTmVu6ZRlfHAS67/6EEUASwXd4gTDW3/3sz45kCA+QBICuUBj7X7p5RDwHWRgBHLpCFq+35HDB73IEuh/4HqsWSgBJBHSYvKdb2eSmMlZMuoWa3kYzvY26NkThBLAD0ugyqtp8RE0/xID3HrhhBXDwBvRPekuLPAONEzBdWl9GdFfRfoVLl9e3lEIQWgCllUQ4IPAIAQgAtjE1AhDA1PSj8hAAbGBqBCCAqelH5SEA2MDUCEAAU9OPykMAsIGpEYAApqYflYcAYANTIwABTE0/Kg8BwAamRgACmJp+VB4CgA1MjQAEMDX9qDwEABuYGoF/AcHWoyrXmN4RAAAAAElFTkSuQmCC;rotation=240;" vertex="1" parent="1">
          <mxGeometry x="90" y="670" width="160" height="160" as="geometry" />
        </mxCell>
        <mxCell id="R1StidT4puEd5YkUCCja-13" value="" style="ellipse;whiteSpace=wrap;html=1;aspect=fixed;fillColor=none;dashed=1;dashPattern=8 8;movable=1;resizable=1;rotatable=1;deletable=1;editable=1;locked=0;connectable=1;opacity=80;" vertex="1" parent="1">
          <mxGeometry x="80" y="150" width="800" height="800" as="geometry" />
        </mxCell>
        <mxCell id="R1StidT4puEd5YkUCCja-10" value="" style="shape=image;verticalLabelPosition=bottom;labelBackgroundColor=default;verticalAlign=top;aspect=fixed;imageAspect=0;image=data:image/png,iVBORw0KGgoAAAANSUhEUgAAAMAAAADACAYAAABS3GwHAAAAAXNSR0IArs4c6QAADPhJREFUeF7tXQuS1TYQtE9C9iQJJyGcJMtJQk4CnAQ4ibPzVk6M9z1L89FII7WrKKCevt3TGv21LviAwMQIrBPXHVUHAgsEACOYGgEIYGr6UXkIADYwNQIQwNT0o/IQAGxgagQggKnpR+UhANjA1AhAAFPTj8pDALCBqRGAAKamH5WHAGADUyMAAUxNPyoPAcAGpkYAApiaflQ+vAC2bftzWZZ3y7L8tizLH+lvMFsPgR/LstCfr8uyfKN/r+tK/w/5hRXAtm1/vSD+HBL18QpNPPwTUQjhBLBtG7X0f6fWfjxTilsj8ggfo4kglABSd4eMH1+/CJAIPvdbvF9LFkYAqeX/HgXYycv5FMUTRBLAF3R7wsiKBsXvI4gghAAw4A1j+MeCPq/r+qn3kncvAHR9ejehy/J13xWKIACa58fAN6YOuh8QRxAA5vtjGj+VuvtuUAQBYPAbVwBf13V933PxIwhg6xlAlO0agZeBcNc21nXhCNqXGSCWAHoHPLpgRuMDAohukc7lhwAAuDMCfWUHATjzMRrgzvCZZzcaH+gCmZvI2AlCAM78jga4M3zm2Y3GBzyAuYmMnSAE4MzvaIA7w2ee3Wh8wAOYm8jYCUIAzvyOBrgzfObZjcYHPIC5iYydIATgzO9ogDvDZ57daHzAA5ibSHmC6bDPLUKE44NUTgignF+TkCMBnm61+HBxtpmuFun6wqmR+Lg1PCZWWjGR6IAr7jEiIdBlU11dMRKdj7OpQgB1xWtxmq2rC6cggIoGcy/pqIBv22Z5kq2ba0ai8vHIbOEBKgja2PiPJWx+ywIEUMFgrpKMBnhF499haiqCaHzkzBUeIIcQ43enC7yadocgAIZBWASNArjzBV7NrhuJwkep7cEDlCKVCefU+jcfD0AARgZTmkwEwJ1b/x26JreuReCj1LawEMZB6iLstm30NBNNe3p+TS6dggA8KQ6y96RB96fZjBAEAAG8QcBh6vMR6u5TohAABHBPAPRyDb1d5v3RIxS0VcLtgwDcoH7NKALg3DIaQug+EObWtferKjENamCN27a18gAQgJI/CEAJYPJSrQSALpCSPwhACWASgOXOT06JIAAOWnfCQgBKAJMA6AknesrJ9WvRv8YYwJXiMIPgFu+YYSHMwBbhAQxAbDQOaLIhDh7AyGBKk4kCuPNq8I91XZ9KMbQMF4WP0jrDA5QilQmXNsTRYNhjQaxJ6x9lXYZDKQTAQSsvAotD8LkSNWv9IYAcNRV+j+Zyt22rOSNEp8Fo8ct1+8OR1mh85EwSHiCHkOD3iivD7vP+5+pDAAKD0ESJCrixJ2je8u8cRuXjkQ3CA2jUWTYmoDUCzcAYF2NV5AgCqAhuGjTSaTEaHNPfnI9a/U+4GpEDGT8sBMDHTBQjHZv8PQmBPMIjr0B3gdKdoM0GulcVRBdIRL880miAn2ZU/hMBrkeX24gmJjyABr0J447WIEEAExqxpsoQgAY9QdzRABdA0FWU0fiAB+jKvPovDATgzNFogDvDZ57daHzAA5ibyNgJQgDO/I4GuDN85tmNxgc8gLmJjJ0gBODM72iAO8Nnnt1ofMADmJvI2AlCAM78jga4M3zm2Y3GBzyAuYmMnSAE4MzvaIA7w2ee3Wh8wAOYm8jYCUIAzvyOBrgzfObZjcYHPIC5ibxNMB2G2ff+vzschjkeitkPwPx8uWeUToPRR1eg7P92KGk+Cwggj5FpiKiAb9tGZ4GPJ8CkuJAwPvUihqh8PAIfHkBqlnfiJaOn87+aQ/BXJSIx0B86MtnEM0AAhgZTklQEwF/K6HEj3BmujyQGbyFE4KPErvYw8AActE5hHVr8XOluN0d4CgECyFFi/HuPgKdBLV2BWKurw0XxNk7wuEmiRz64YB3DwwMw0WvU3SktZfVboyGAUiqMwvUEeMMHsTloPtccJPfEBwcUzAIp0Ep3/1OXh3u7myJXVdRq1ylCACpe+JFbA+788AUfoMcxaIBMt0mbTpe25sMSIEoLY4ALRAMb/14rcxFAANYSzKTXEvAgff4cI6bdoZZ85Coq+R0e4AFqxvf777nQxbfUKtN+H/qO3RPaNkEfjTOuLs+V8Gw2OwQBSOBXxGkBuPFUJxn9N+4152mt4cNBEAoUb1FNRNCCD23Fr+LDA5zQSYZHrz1qv8/rutJ2BfWXvNHuGTTpqZ9YggA08AviegNu8L6XaZ97h+zgEWiXqfRTD4q9+ZBWtDQePMABKYOuj0k344q81mWEAEqlZRTOE3BuXqcqqrsXpZApN+GpvAAXo3Vdu25kuy4cGYQX4MqW1c34T10i6YY8safy4qO0MdCGgwBeRUbTjt+FYLob/0EEmnMIT5JVYghAaCXSaB6AK1p/cUsqxeMcz7vsHnxYYVOSDjzAqwegaU/uRjc6jfW+BOTaYYSLdqLyQwC12TylXxtwRfdH1IWoAZ9izxK7DrX5qIHPVZrTewBhF6J518eoK/RRsEK9cYwUs0ActO6Erd3iCARAd/U8KatlHl3oBdir1bX5MAcmkyA8wLaxWrQXPLtr/Q+zQjQtyl0pZnWDIABnidYEXNj/bzbtmYNeuI+JVZ+afOTqV+P3qT2AwGC67P4cDUOwl4k1DoAAasjwIs2agKctBdRtKP1EU4eliVuEE0yJQgAWwNdKo7IAuCup3fb/FeMAVp1q8lHLhjAN+gABwQwQy1haECrwaqyZIAjAmdWagNfuLjhDdcsOAuChPvsgmLsFgjVjwqPCJrRgYM8a19RskGwQ4KUCAfD2AEEAzHUTrATzBPkmdM0WB12gG9wYAyhttGp0CIAHb+2BfU0+eDW1CT17F2jEadCqdYIAbIRXnEpNwGvPmBRX0jCg4GwDFsIM8TdPqjMBUP1Ym8fMAckkyMUrXaC7v1CZLS43fQyCs5BeB6gJuGDKkArb7UyQR31q8qE0FVH0qccAaeGIDsNznjpizZqIWBFGEgyA2Zv7IAAhOdJotQEXTIV22Q0Sbu1mi7k2H1I7kcaDB3h90JqzI5Sw7m5PkKD1F9UDApBKTRjPA3BuHqkq3QyGha3/IhmgcrGS5CE0FVG06T2AcBwgaj1FDBVEEkx9Uqrs/n/CinWEFAIoIPAqiEeLI+w+dCEC77J78KE0GVZ0eIAEl+Ao4Q40ayGJxU4msHDaU9z6wwNYsleYlleLo2hJm8wKKYxf5bm8+Cg0D3UweIADhAovQKm4eQKl8Yv6/jtMEIBac7wEPAFXegFVy1qKSusyevJRiokmHDzACT2lF6DU6FG8T5KrxzOTAbRarX2tXtX6YwygkZowrneLk1pYWhzjbI+4VzszIQhXq++VSb2PyZsPodkUR4MHuAOVQTfjmOozPZOa5t2P7wJfkpS2atPbwdyrDh+la7J6DQEUa8smYCvAjUWwg0HbjvetxySK/du9zbvkeayMfk+fvefnEXut+LCxprepwANcIGswHqjFGydd1q0PuYQhgBxCxr+3BFx45bgxAqrk1IPec+4t+VAh8SAyPEAG1cAioPEGrU0Un/YqMTAIoAQlwzA9AB5QBKbdniOdPfBhaF4LPAADTcPpSEau7KDVjJ9KAgGw+dBF6A1ww3UCHTD3Y5tMdV4VrDc+tCDCAwgQTHtxpK+0C3LMRqnS37+XKwSQ5cI2QM+Ap8UquohKu2qsAc1tEx66QBqahHF7FsBepUbdourdHXgAodFaRosggJMQ6MV57qvzpZDR/qJv3Ld9SxMvCReJj5L6YAxQgpIgTBon7N0jTRfpZvS0hcJ6h6mgWpgFkoCmiTNCi5PEQDCQEGi/D31HL7FvkqO/f6bfuzD4M3cj8HGsEzyARp0TxoUAnEkfDXBn+MyzG40PeABzExk7QQjAmd/RAHeGzzy70fiABzA3kbEThACc+R0NcGf4zLMbjQ94AHMTGTtBCMCZ39EAd4bPPLvR+IAHMDeRsROEAJz5HQ1wZ/jMsxuND3gAcxMZO0EIwJnfQa4mcUatm+zMb6WwrlkED/Cl4vZiazyR3q8IVD2fbAF2BAHQ0UPrm9IssEMaeQSaHNrJF+v/EBEEIHnFkYMBwtZDwPW4pqQaEQRAe+ipG6Q5VCLBBnGUCPT+QB5Vr3sBUCHTmVu6ZRlfHAS67/6EEUASwXd4gTDW3/3sz45kCA+QBICuUBj7X7p5RDwHWRgBHLpCFq+35HDB73IEuh/4HqsWSgBJBHSYvKdb2eSmMlZMuoWa3kYzvY26NkThBLAD0ugyqtp8RE0/xID3HrhhBXDwBvRPekuLPAONEzBdWl9GdFfRfoVLl9e3lEIQWgCllUQ4IPAIAQgAtjE1AhDA1PSj8hAAbGBqBCCAqelH5SEA2MDUCEAAU9OPykMAsIGpEYAApqYflYcAYANTIwABTE0/Kg8BwAamRgACmJp+VB4CgA1MjQAEMDX9qDwEABuYGoF/AcHWoyrXmN4RAAAAAElFTkSuQmCC;rotation=120;" vertex="1" parent="1">
          <mxGeometry x="710" y="670" width="160" height="160" as="geometry" />
        </mxCell>
        <mxCell id="R1StidT4puEd5YkUCCja-15" value="" style="shape=image;verticalLabelPosition=bottom;labelBackgroundColor=default;verticalAlign=top;aspect=fixed;imageAspect=0;image=data:image/png,iVBORw0KGgoAAAANSUhEUgAAAMAAAADACAYAAABS3GwHAAAAAXNSR0IArs4c6QAAC5JJREFUeF7tnQFy3DYMRcWTtD5JmpOkOUmTk9Q5SZqTJD0Ju3BIR7PdtQiQWhL4XzMeNzW1K3zgkSBISWnjQQWAFUjAttN0KrARAAYBtAIEANr9NJ4AMAagFSAA0O6n8QSAMQCtAAGAdj+NJwCMAWgFCAC0+2k8AWAMQCtAAKDdT+MJAGMAWgECAO1+Gk8AGAPQChAAaPfTeALAGIBWgABAu5/GEwDGALQCBADa/TSeADAGoBUgANDup/EEgDEArQABgHY/jScAjAFoBQgAtPtpPAFgDEArQACg3U/jCQBjAFoBAgDtfhpPABgD0AoQAGj303gC8IAYyDn/Wb7mt23bfr/6kT/9U/7+Y9s2+ZHjW0qp/v8HXCXmVxCAk/yec/5j27YPl+CW3xL0lkMAkJ8vKaUKhuVzeM4dBQjA4NDIOf/dGfT3rogwDPaVfBwBGCRqSXP+6ujtW69ERoLPKaXn1hPY7r4CBKAzOnLOkt7UXr/z01Sny4jwkamRSrP/NSYAHfrlnKXH/9TxESNOle/nHMGoJAEwCpdz/lpyfeMnDD2NEBjlJAAG4RYL/moBUyKDLwmAUrRFg58QKP1YmxOARuEmTnYbr/C1GUcChWIEoEGsUuKUSo+n46MsorFK9LbLCMAb+pTVXKn0yGqux0NGA1kz4JaKO94jAHeEOSnXl8Wrb+UrX4JSeugCmvxT1hTenbCSLN8rIHA7xZW/CcCVICUYpcQ58lAHYFljkE101n1Et65fFs64grxThgDsxDgh+CUHf99DUtlbVHeT9nxUPfeJI8EvGQlA0aJUeb6PiLDyGcN62wKmTMJHjQaEoDiJAGzbdkLwvx898SzXKKnZCAhkLiDXCD8ngAfghMCSnv+UqssJ1woPAQEYt6dHetPTgn+fmuWcJVXjSDAgX4UGYOBuzocFf/X5wBtvPqWUPg+IJZcfAQvAwLx/2GRXG0EDF+pgJ8XIAEhVpae8uEzPOeButGVs0XYCve0hAejs/ZfcbFZskm0bVqghRwFUAKx3cnUvbPX2WEfndyycQY4CqABYqijLB/9ugmy5W82NfUedgObvcAAY058fKaUnjbCz2xpLpXBpECIAkiNr9/a7Sw+MJd5pFa1ZHQYiANr8313vv0uFtKnec0pJbqSBORAB0ObH7nr/q8UyTVUIbh6ACIC2V3SbFhhu5SQA0cc+w+Rw+M7OR2lsuL/Bbbpn1RRxBMgasS77ZFxrdJkMQ9mr8a20de1crbHS3jACuC0NWkq+3oHXxgQBOFaMKdCxRm5bIAKgrQJ5ngRrS76cBLtFufHCDXtl3NbGDYthBKAxjtw2MwDgNigMzzZyu+ZhDUjEFEie8qZ67o/XiaG2AlRulD/lfmZrgJ59HhwAKJUgVoDa0EEFIPxE2LAI5jbVawv1261QAdBWR9xVggwTYLj8H3UhTB4non0CnLvgMEz2JR7cLvpZRwG4EcBQGRFtPQJgue9hyfudrcHdch4UAIa0oGrobjXYMAeotrqDvSXQ77WBAcBSFamiOS6Dard+V5NhUiEkALQTX/c9YseIBzMKQADQ0/t7nhh2PkwXYhRAAQCu96/DF0eBt2cIKABoF75EtTALQ8bKVxj730IgPADG9CfUrYEdqVD4NAgBAEs93N3K71Ep0JgKhdPhWicEALT5f6jef+9ww+2gbu+FOOoQXkvcrQ29tjPkv2FLgIbtEeHnAQgjgHYCHBkAbTpIALz2/LsyoHY11N22h1YfGbZHhE0HkVIgPhdnR4j2LjGv20BaOwWEFEg7AoQt/RlKwhwBWklatZ2h8sEU6JczCcCqgd16XYYqUNjat2EtgJPg1kBbtZ2h9Be29m3oDMJqgTQJtrwONdw8wJD/S4yELQkjAaCtfYd0vCH9CakD3FYIMdgwEZbTwowChvr/S5xEL4G+2Lhq7j7yuowA/ChPSpPfrg+r/d7ejGlxEgoA2g1xVctPl5HgS0rJLQSGie+r7ZcR4LMlqDydgwKAPAtI9gTJb+3h9lEhHcEfKgV8y+EQAJR5gHUUkNNlBJDeUOriy48G5eV4Yq8FeIjJL0wVqBracVfUvgOR0UB+vhUoZKI4HYhimzz1+t3l+uS3NfBfYEfI/eEAGDAKaFMnr+3D1/73joFJgXYjgXZznNdAtlw3VO8vAiEC0DMhtgSVl3MklZN9UHxBhhePWa9zwCTR+tUrnxd2FyyrQDcUMG4NWDmAe64t7A7YI1HgUqC9IAUC2SvUUzU50nj1v8MGP+Qc4Doayz4Z2TGKCAFk2gNdBbrVHQ9aI1i9p99fH+SE95aDoFOgG6OBjAS9C0mrgwBV5z9yBgG4UqiMBrKNIBoIz7KdY4WV66OgfOTfCcAdtcvcYL+1wOMcQYJetm242MP0yMCv30UAGlUvQHzYTZYrECuAITl9/RGLGPSNfiUAjUKxWUwFCEBMv9KqRgUIQKNQbBZTAQIQ06+0qlEBAtAoFJvFVIAAxPQrrWpUgAA0CsVmMRUgADH9SqsaFSAAjUKxWUwFCEBMv9KqRgUIQKNQbBZTAQIQ06+0qlEBAtAoVEuzsmFuvznut3Le9ca563/Xh2vd+/1v+ZzXDW/c1tzikeM2BOBYo5stypMlJMAlmGfcO1AfX/L6pDpCoXcmATjQbNerj3jsoN5DujMIhU4vvAdjtehTenfZ+y89u/ejpk3ycF958tv0Z5muJChHgJ9vkJFHo3jo4UfEjowSX3iX2E8pYQHYBb0EP+pRn3bt+iUgPc6DAWD3CPEoqU2P32+dKzBIeiSjA0yqFB6AYPn86KB/6/MgniIREoDAjzZ5JAD1u0LPGUIBwN7+dD7CjQruAWBvf3rQ35svhKgkuQWAvf2UwL/1pTIqSBXJ5Ys13AGw+NOcayWlLjbVPTwSONf7fF5fsFdGMWmz30dU/7vuJ5K/14U5+dsKD+TaA+HydbJuAChBUh9eO7v7k15Pjvq2yIeXDYseAoEs4FU4VgDD1cvFXQBQ0h0J/hmHu+drLvBcUzePX18agEm9vruAP+oVJgKxfFq0OgBfH7QhzfVE7giA678XIOqb5M+eSyxdOl0WgJzz2cEPFfT3IHkQDMvOC5YE4MTgf1nVTCnVSay28wzbfpcmnfXSwCXfTLMcADlnmeyO3qG59DC8GlUnjgrLQbAUACe8uxf6FaC9YO1eCjLyls+lIFgGgFLx+d7rNLnRg2nOABWvPmLgO5WlRCqvZ13izrSVAJCqhEyWrIcEvrwEzuWSvNXoR59X1mRqBcn69cuMAksAMKD3Z6pjDUXjeQPmak8rjAKrAGDt/d2sOBrjbOnTOvdlLdFprQKA5P6WBRnJJZnyTMSkIyWSV7e+n3jpL189HYCO9IfBPzt6yvd3VO+mp0ErACA1f+1Gt2UmUYvE4PTLMM4JpqdBKwBgyf+n9xzTI26xCyjzAdm+ojmeU0ofNSeMbrsCANo9P7L3/mm0EPy8fgVyztq53PR5gEcAmP70x+opn2C4b4MAGHoNTn5PCd/+DzWkQdNH8xVGgKyRPqU0/Zo114vU1lLRm+3P6cF0KaERgECUePMnAQgUfCuYQgCUXvAmmNI8uObe/MkRAC5EzzWYACj19SaY0jy45t78yREALkTPNZgAKPX1JpjSPLjm3vzpbgSAi6jgBnMdQLkOEDwe4MwjAAQALuj3BhMAAkAAJirAOcBE8fnVm7wjYWoMTv1yCQBt1YBBE0sBAsAUKFZEK60hAARAGTKxmhMAAhAropXWEAACoAyZWM0JAAGIFdFKawgAAVCGTKzm8ADEciet8abA9HUAb4LxemMpQABi+ZPWKBUgAErB2DyWAgQglj9pjVIBAqAUjM1jKUAAYvmT1igVIABKwdg8lgIEIJY/aY1SAQKgFIzNYylAAGL5k9YoFSAASsHYPJYCBCCWP2mNUgECoBSMzWMpQABi+ZPWKBUgAErB2DyWAv8BVKt3/SBvLGQAAAAASUVORK5CYII=;" vertex="1" parent="1">
          <mxGeometry x="400" y="440" width="160" height="160" as="geometry" />
        </mxCell>
        <mxCell id="R1StidT4puEd5YkUCCja-18" value="" style="endArrow=none;dashed=1;html=1;rounded=0;dashPattern=8 8;opacity=80;" edge="1" parent="1" source="R1StidT4puEd5YkUCCja-15">
          <mxGeometry width="50" height="50" relative="1" as="geometry">
            <mxPoint x="710" y="490" as="sourcePoint" />
            <mxPoint x="720" y="320" as="targetPoint" />
          </mxGeometry>
        </mxCell>
        <mxCell id="R1StidT4puEd5YkUCCja-19" value="" style="endArrow=none;dashed=1;html=1;rounded=0;dashPattern=8 8;opacity=80;" edge="1" parent="1" source="R1StidT4puEd5YkUCCja-15">
          <mxGeometry width="50" height="50" relative="1" as="geometry">
            <mxPoint x="420" y="430" as="sourcePoint" />
            <mxPoint x="240" y="320" as="targetPoint" />
          </mxGeometry>
        </mxCell>
        <mxCell id="R1StidT4puEd5YkUCCja-20" value="" style="endArrow=none;dashed=1;html=1;rounded=0;exitX=0.481;exitY=0.004;exitDx=0;exitDy=0;exitPerimeter=0;dashPattern=8 8;opacity=80;" edge="1" parent="1">
          <mxGeometry width="50" height="50" relative="1" as="geometry">
            <mxPoint x="480" y="440.6400000000001" as="sourcePoint" />
            <mxPoint x="480" y="230" as="targetPoint" />
          </mxGeometry>
        </mxCell>
        <mxCell id="R1StidT4puEd5YkUCCja-21" value="" style="endArrow=none;dashed=1;html=1;rounded=0;dashPattern=8 8;opacity=80;" edge="1" parent="1" source="R1StidT4puEd5YkUCCja-15">
          <mxGeometry width="50" height="50" relative="1" as="geometry">
            <mxPoint x="410" y="462" as="sourcePoint" />
            <mxPoint x="240" y="710" as="targetPoint" />
          </mxGeometry>
        </mxCell>
        <mxCell id="R1StidT4puEd5YkUCCja-22" value="" style="endArrow=none;dashed=1;html=1;rounded=0;exitX=0.988;exitY=0.876;exitDx=0;exitDy=0;exitPerimeter=0;dashPattern=8 8;opacity=80;" edge="1" parent="1">
          <mxGeometry width="50" height="50" relative="1" as="geometry">
            <mxPoint x="560" y="583" as="sourcePoint" />
            <mxPoint x="721" y="706" as="targetPoint" />
          </mxGeometry>
        </mxCell>
        <mxCell id="R1StidT4puEd5YkUCCja-23" value="L" style="text;html=1;align=center;verticalAlign=middle;whiteSpace=wrap;rounded=0;fontFamily=Noto Sans;fontSource=https%3A%2F%2Ffonts.googleapis.com%2Fcss%3Ffamily%3DNoto%2BSans;fontSize=24;" vertex="1" parent="1">
          <mxGeometry x="240" y="290" width="60" height="30" as="geometry" />
        </mxCell>
        <mxCell id="R1StidT4puEd5YkUCCja-24" value="R" style="text;html=1;align=center;verticalAlign=middle;whiteSpace=wrap;rounded=0;fontFamily=Noto Sans;fontSource=https%3A%2F%2Ffonts.googleapis.com%2Fcss%3Ffamily%3DNoto%2BSans;fontSize=24;" vertex="1" parent="1">
          <mxGeometry x="660" y="290" width="60" height="30" as="geometry" />
        </mxCell>
        <mxCell id="R1StidT4puEd5YkUCCja-25" value="C" style="text;html=1;align=center;verticalAlign=middle;whiteSpace=wrap;rounded=0;fontFamily=Noto Sans;fontSource=https%3A%2F%2Ffonts.googleapis.com%2Fcss%3Ffamily%3DNoto%2BSans;fontSize=24;" vertex="1" parent="1">
          <mxGeometry x="470" y="220" width="60" height="30" as="geometry" />
        </mxCell>
        <mxCell id="R1StidT4puEd5YkUCCja-26" value="LS" style="text;html=1;align=center;verticalAlign=middle;whiteSpace=wrap;rounded=0;fontFamily=Noto Sans;fontSource=https%3A%2F%2Ffonts.googleapis.com%2Fcss%3Ffamily%3DNoto%2BSans;fontSize=24;" vertex="1" parent="1">
          <mxGeometry x="250" y="730" width="60" height="30" as="geometry" />
        </mxCell>
        <mxCell id="R1StidT4puEd5YkUCCja-27" value="RS" style="text;html=1;align=center;verticalAlign=middle;whiteSpace=wrap;rounded=0;fontFamily=Noto Sans;fontSource=https%3A%2F%2Ffonts.googleapis.com%2Fcss%3Ffamily%3DNoto%2BSans;fontSize=24;" vertex="1" parent="1">
          <mxGeometry x="650" y="730" width="60" height="30" as="geometry" />
        </mxCell>
        <mxCell id="R1StidT4puEd5YkUCCja-44" value="Listener" style="text;html=1;align=center;verticalAlign=middle;whiteSpace=wrap;rounded=0;fontFamily=Noto Sans;fontSource=https%3A%2F%2Ffonts.googleapis.com%2Fcss%3Ffamily%3DNoto%2BSans;fontSize=24;" vertex="1" parent="1">
          <mxGeometry x="450" y="601" width="60" height="30" as="geometry" />
        </mxCell>
      </root>
    </mxGraphModel>
  </diagram>
</mxfile>
